M48
; DRILL file KiCad 10.0.3 date 2026-06-08T20:39:10
; FORMAT={-:-/ absolute / metric / decimal}
; #@! TF.CreationDate,2026-06-08T20:39:10-03:00
; #@! TF.GenerationSoftware,Kicad,Pcbnew,10.0.3
; #@! TF.FileFunction,Plated,1,2,PTH
FMAT,2
METRIC
; #@! TA.AperFunction,Plated,PTH,ViaDrill
T1C1.000
; #@! TA.AperFunction,Plated,PTH,ComponentDrill
T2C1.000
%
G90
G05
T1
X11.222Y53.808
X17.805Y53.837
X27.2Y64.12
X37.45Y64.05
X44.496Y64.12
X44.547Y69.556
X46.65Y74.0
X48.408Y81.138
X48.45Y56.3
X48.45Y16.05
X48.45Y5.8
X50.7Y33.55
X51.2Y44.05
X61.95Y5.8
X68.7Y5.8
X72.95Y70.05
X72.95Y29.8
T2
X7.7Y53.8
X7.7Y51.26
X7.7Y48.72
X10.45Y67.38
X10.45Y64.84
X10.45Y62.3
X17.37Y78.55
X18.45Y46.13
X18.45Y41.05
X19.91Y78.55
X21.025Y53.84
X21.025Y51.3
X22.45Y78.55
X23.7Y24.55
X23.7Y22.05
X24.2Y53.8
X24.2Y51.3
X27.7Y57.3
X28.45Y27.05
X28.45Y24.51
X28.45Y21.97
X29.08Y53.67
X29.08Y51.13
X29.08Y48.59
X29.08Y46.05
X30.45Y42.05
X30.45Y31.89
X33.32Y71.74
X35.2Y41.8
X35.2Y31.64
X35.2Y27.14
X35.2Y24.6
X35.2Y22.06
X35.86Y74.28
X35.86Y69.2
X36.7Y53.67
X36.7Y51.13
X36.7Y48.59
X36.7Y46.05
X37.86Y57.3
X38.19Y16.05
X38.19Y8.43
X39.035Y71.74
X40.2Y51.05
X40.2Y48.51
X40.73Y16.05
X40.73Y8.43
X41.575Y74.28
X41.575Y69.2
X41.95Y24.55
X41.95Y22.05
X43.27Y16.05
X43.27Y8.43
X45.45Y48.55
X45.45Y38.39
X45.81Y16.05
X45.81Y8.43
X51.1Y69.2
X51.1Y61.58
X51.16Y56.3
X52.2Y16.05
X52.2Y8.43
X53.54Y77.8
X53.64Y69.2
X53.64Y61.58
X53.64Y47.61
X53.64Y42.53
X53.64Y33.64
X53.7Y56.3
X54.74Y16.05
X54.74Y8.43
X56.18Y69.2
X56.18Y61.58
X56.18Y42.53
X56.18Y33.64
X57.28Y16.05
X57.28Y8.43
X58.72Y69.2
X58.72Y61.58
X58.72Y42.53
X58.72Y33.64
X59.82Y16.05
X59.82Y8.43
X60.625Y74.915
X60.625Y72.375
X61.26Y69.2
X61.26Y61.58
X61.26Y42.53
X62.36Y16.05
X62.36Y8.43
X63.7Y77.8
X63.8Y72.375
X63.8Y69.2
X63.8Y61.58
X63.8Y57.135
X63.8Y54.595
X63.8Y52.055
X63.8Y47.61
X63.8Y42.53
X64.2Y37.05
X64.2Y32.55
X64.9Y16.05
X64.9Y8.43
X66.34Y72.375
X66.34Y69.2
X66.34Y61.58
X67.44Y16.05
X67.44Y8.43
X67.62Y25.3
X69.28Y37.05
X69.28Y32.55
X69.7Y76.82
X69.7Y61.58
X69.7Y57.77
X69.7Y55.23
X72.7Y25.3
X77.801Y73.095
X78.301Y57.345
X79.12Y42.05
X80.341Y73.095
X80.45Y79.55
X80.7Y51.3
X80.841Y57.345
X81.66Y42.05
X82.881Y73.095
X82.95Y79.55
X83.2Y51.3
X83.381Y57.345
X84.2Y42.05
M30
