M48
; DRILL file KiCad 10.0.3-10.0.3~ubuntu24.04.1 date 2026-06-17T19:48:07
; FORMAT={-:-/ absolute / metric / decimal}
; #@! TF.CreationDate,2026-06-17T19:48:07-03:00
; #@! TF.GenerationSoftware,Kicad,Pcbnew,10.0.3-10.0.3~ubuntu24.04.1
; #@! TF.FileFunction,Plated,1,2,PTH
FMAT,2
METRIC
; #@! TA.AperFunction,Plated,PTH,ViaDrill
T1C1.000
; #@! TA.AperFunction,Plated,PTH,ComponentDrill
T2C1.000
%
G90
G05
T1
X7.6Y20.45
X10.067Y55.8
X10.067Y45.447
X17.725Y76.65
X17.725Y70.05
X20.05Y20.35
X49.567Y61.349
X49.667Y55.147
X49.753Y50.011
X54.775Y12.675
X60.9Y66.325
X60.975Y73.575
X65.828Y34.511
X71.925Y50.1
T2
X6.767Y76.747
X6.767Y66.587
X7.96Y30.391
X7.96Y25.311
X9.643Y40.343
X10.634Y81.827
X10.634Y79.287
X10.634Y76.747
X10.867Y66.587
X12.143Y40.343
X13.367Y66.587
X15.403Y53.41
X15.403Y43.25
X15.403Y37.343
X17.598Y40.843
X18.12Y30.391
X18.12Y25.311
X20.138Y40.843
X20.138Y14.8
X20.138Y12.26
X20.138Y9.72
X23.023Y57.723
X23.023Y55.223
X23.023Y52.343
X23.023Y44.723
X23.063Y40.843
X23.562Y66.15
X24.14Y30.391
X24.14Y27.851
X24.14Y25.311
X25.563Y52.343
X25.563Y44.723
X25.563Y40.843
X25.563Y37.343
X26.062Y66.15
X26.12Y14.147
X26.12Y9.8
X28.103Y52.343
X28.103Y44.723
X28.143Y58.931
X28.143Y56.391
X30.643Y52.343
X30.643Y44.723
X30.643Y41.723
X30.643Y39.223
X30.867Y64.447
X31.2Y14.147
X31.2Y9.8
X31.867Y81.827
X31.867Y79.287
X31.867Y76.747
X32.913Y30.391
X32.913Y27.851
X32.913Y25.311
X33.407Y64.447
X34.143Y53.391
X34.143Y43.231
X34.2Y39.8
X35.793Y16.391
X35.947Y64.447
X38.333Y58.891
X38.333Y56.391
X38.333Y52.511
X38.333Y44.891
X38.333Y32.011
X38.333Y24.391
X38.333Y16.391
X38.373Y35.891
X40.873Y52.511
X40.873Y44.891
X40.873Y35.891
X40.873Y32.011
X40.873Y24.391
X40.873Y16.391
X40.873Y8.891
X41.82Y39.8
X43.413Y52.511
X43.413Y44.891
X43.413Y32.011
X43.413Y24.391
X43.413Y16.391
X43.413Y8.891
X45.953Y34.8
X45.953Y52.511
X45.953Y44.891
X45.953Y37.3
X45.953Y32.011
X45.953Y24.391
X45.953Y16.391
X45.953Y8.891
X48.493Y52.511
X48.493Y44.891
X48.493Y42.3
X49.367Y76.747
X49.367Y66.587
X49.643Y24.391
X49.643Y21.891
X49.761Y32.011
X50.62Y37.3
X51.033Y52.511
X51.033Y44.891
X51.167Y8.891
X51.167Y6.391
X52.261Y32.011
X52.967Y66.587
X53.1Y81.827
X53.1Y79.287
X53.1Y76.747
X53.16Y37.3
X53.573Y42.3
X53.573Y52.511
X53.573Y44.891
X54.867Y8.891
X55.467Y66.587
X55.7Y37.3
X55.911Y32.011
X55.911Y24.391
X56.643Y52.511
X56.643Y42.351
X58.451Y32.011
X58.451Y24.391
X60.143Y58.291
X60.143Y55.791
X60.143Y52.391
X60.143Y44.771
X60.991Y32.011
X60.991Y24.391
X61.012Y34.779
X61.031Y21.147
X62.683Y52.391
X62.683Y44.771
X62.856Y42.173
X63.531Y32.011
X63.531Y24.391
X63.531Y21.147
X63.531Y17.447
X65.027Y8.891
X65.223Y52.391
X65.223Y44.771
X66.534Y26.647
X67.763Y52.391
X67.763Y44.771
X68.611Y17.447
X69.074Y29.187
X69.074Y24.107
X71.2Y44.8
X72.2Y39.447
X72.2Y24.207
X75.127Y26.547
X76.28Y44.8
X76.62Y33.8
X77.667Y29.087
X77.667Y24.007
X79.16Y33.8
X79.7Y44.8
X81.7Y33.8
X82.2Y44.8
M30
