M48
; DRILL file KiCad 10.0.3-10.0.3~ubuntu24.04.1 date 2026-06-11T21:35:23
; FORMAT={-:-/ absolute / metric / decimal}
; #@! TF.CreationDate,2026-06-11T21:35:23-03:00
; #@! TF.GenerationSoftware,Kicad,Pcbnew,10.0.3-10.0.3~ubuntu24.04.1
; #@! TF.FileFunction,Plated,1,2,PTH
FMAT,2
METRIC
; #@! TA.AperFunction,Plated,PTH,ViaDrill
T1C1.000
; #@! TA.AperFunction,Plated,PTH,ComponentDrill
T2C1.000
%
G90
G05
T1
X5.7Y77.8
X5.7Y58.8
X34.2Y52.8
X44.2Y45.8
X44.7Y75.8
X53.085Y60.415
X63.7Y25.3
T2
X4.62Y46.8
X4.62Y39.8
X9.5Y69.145
X9.5Y66.605
X9.5Y64.065
X9.7Y46.8
X9.7Y39.8
X12.7Y9.8
X12.743Y53.32
X15.24Y9.8
X15.283Y70.575
X15.283Y62.955
X15.283Y53.32
X15.283Y45.3
X17.78Y9.8
X17.823Y70.575
X17.823Y62.955
X17.823Y53.32
X17.823Y45.3
X20.363Y70.575
X20.363Y62.955
X20.363Y53.32
X20.363Y45.3
X22.903Y70.575
X22.903Y62.955
X22.903Y53.32
X27.187Y69.145
X27.187Y66.605
X27.187Y64.065
X29.54Y78.3
X31.393Y70.8
X31.393Y60.64
X34.46Y70.575
X34.46Y62.955
X34.46Y58.8
X34.5Y54.8
X37.0Y74.8
X37.0Y70.575
X37.0Y62.955
X37.0Y58.8
X37.0Y54.8
X39.08Y42.92
X39.08Y35.3
X39.54Y74.8
X39.54Y70.575
X39.54Y62.955
X39.7Y78.3
X41.62Y42.92
X41.62Y35.3
X42.08Y70.575
X42.08Y62.955
X44.16Y42.92
X44.16Y35.3
X45.54Y68.035
X45.54Y60.415
X46.7Y42.92
X46.7Y35.3
X48.08Y70.575
X48.08Y62.955
X50.08Y33.04
X50.08Y30.5
X50.08Y27.96
X50.08Y25.42
X50.08Y22.88
X50.08Y20.34
X50.08Y17.8
X50.62Y68.035
X50.62Y60.415
X55.2Y14.3
X55.2Y9.22
X55.58Y70.575
X55.58Y62.955
X57.7Y33.04
X57.7Y30.5
X57.7Y27.96
X57.7Y25.42
X57.7Y22.88
X57.7Y20.34
X57.7Y17.8
X58.12Y70.575
X58.12Y62.955
X60.66Y70.575
X60.66Y62.955
X63.2Y70.575
X63.2Y62.955
X65.2Y11.8
X65.2Y9.3
X69.7Y29.46
X69.7Y19.3
X72.66Y3.8
X73.175Y46.84
X73.2Y78.3
X73.2Y62.57
X74.2Y70.435
X74.2Y54.705
X75.2Y38.551
X75.2Y3.8
X75.715Y46.84
X75.74Y78.3
X75.74Y62.57
X76.7Y70.435
X76.7Y54.705
X77.7Y38.551
X77.74Y3.8
X77.8Y29.322
X77.8Y26.782
X77.8Y24.242
X78.255Y46.84
X78.28Y78.3
X78.28Y62.57
X79.7Y17.3
X79.7Y14.76
X79.7Y12.22
X83.7Y39.46
X83.7Y29.3
M30
